<?xml version="1.0" standalone="no"?>
<!DOCTYPE svg PUBLIC "-//W3C//DTD SVG 20010904//EN"
 "http://www.w3.org/TR/2001/REC-SVG-20010904/DTD/svg10.dtd">
<svg version="1.0" xmlns="http://www.w3.org/2000/svg"
 width="512.000000pt" height="512.000000pt" viewBox="0 0 512.000000 512.000000"
 preserveAspectRatio="xMidYMid meet">
<metadata>
Created by potrace 1.14, written by Peter Selinger 2001-2017
</metadata>
<g transform="translate(0.000000,512.000000) scale(0.100000,-0.100000)"
fill="#000000" stroke="none">
<path d="M2235 4849 c-27 -5 -70 -11 -95 -15 -25 -3 -49 -10 -55 -14 -5 -4
-35 -11 -65 -15 -30 -4 -61 -11 -70 -15 -8 -5 -42 -16 -75 -25 -59 -16 -93
-28 -127 -46 -10 -5 -23 -9 -28 -9 -32 0 -350 -160 -391 -196 -8 -8 -19 -14
-23 -14 -21 0 -292 -217 -381 -305 -23 -23 -156 -175 -198 -226 -52 -64 -175
-254 -225 -349 -96 -182 -174 -387 -221 -577 -58 -237 -56 -218 -56 -558 0
-352 -2 -333 76 -625 206 -763 843 -1406 1605 -1620 298 -84 307 -85 654 -85
347 0 356 1 652 85 683 192 1262 719 1530 1391 42 105 96 284 113 369 3 19 14
64 23 100 14 54 17 118 17 390 0 272 -3 336 -17 390 -9 36 -20 81 -23 100 -32
165 -119 406 -220 604 -57 114 -181 310 -242 385 -42 51 -175 203 -198 226
-89 88 -360 305 -381 305 -4 0 -15 6 -23 14 -40 36 -359 196 -390 196 -6 0
-19 4 -29 9 -34 18 -68 30 -127 46 -33 9 -67 20 -75 25 -9 4 -40 11 -70 15
-30 4 -59 11 -65 15 -5 4 -28 10 -50 13 -22 4 -67 11 -100 16 -73 11 -580 11
-650 0z m400 -749 c56 -35 65 -75 65 -288 0 -206 -7 -235 -63 -276 -42 -31
-117 -29 -152 4 -52 48 -55 64 -55 280 0 162 3 207 15 231 34 65 126 88 190
49z m-1112 -444 c18 -7 96 -79 175 -158 l142 -145 0 -56 c0 -49 -4 -61 -31
-91 -19 -23 -43 -38 -66 -42 -69 -13 -99 6 -256 164 l-147 149 0 55 c0 63 23
101 74 124 40 17 69 17 109 0z m2192 0 c64 -27 95 -119 61 -184 -8 -15 -77
-89 -153 -164 -113 -110 -146 -138 -176 -143 -108 -21 -188 65 -158 167 10 32
41 70 129 161 168 172 214 197 297 163z m-966 -442 c93 -21 234 -92 313 -158
131 -109 227 -261 269 -425 18 -71 21 -104 16 -205 -3 -71 -11 -143 -21 -173
l-17 -53 -745 0 -744 0 -11 28 c-6 15 -18 63 -26 107 -38 211 40 469 194 635
206 223 485 311 772 244z m-1346 -578 c55 -22 87 -70 87 -127 0 -42 -5 -55
-34 -87 l-34 -37 -222 -3 c-209 -3 -223 -2 -254 18 -35 21 -66 73 -66 109 0
56 50 120 105 134 11 2 102 5 203 6 134 1 191 -3 215 -13z m2764 -5 c50 -23
73 -63 73 -127 0 -41 -5 -51 -39 -85 l-39 -39 -222 0 -222 0 -38 38 c-73 72
-59 164 30 210 41 20 57 22 230 22 160 0 191 -3 227 -19z m179 -647 c53 -25
79 -69 79 -134 0 -65 -26 -109 -79 -134 -31 -15 -190 -16 -1788 -16 -1732 0
-1753 0 -1786 20 -96 59 -96 201 0 260 33 20 54 20 1786 20 1598 0 1757 -1
1788 -16z"/>
</g>
</svg>
